<svg width="1200" height="526" viewBox="0 0 1200 526" fill="none" xmlns="http://www.w3.org/2000/svg">
<path opacity="0.6" d="M-82.3338 -157.396L-362.475 78.5839C-377.733 91.4368 -383.675 112.257 -377.5 131.227L-232.67 576.13C-227.193 592.955 -213.071 605.52 -195.724 609.003L188.567 686.177C203.197 689.115 218.369 685.226 229.783 675.612L508.873 440.516C524.593 427.275 530.378 405.63 523.361 386.312L359.235 -65.5638C353.365 -81.7274 339.45 -93.6305 322.572 -96.927L-41.3724 -168.012C-55.9291 -170.855 -70.9902 -166.952 -82.3338 -157.396Z" fill="url(#paint0_linear_303_9190)"/>
<path opacity="0.6" d="M1214.4 -48.8192L936.106 178.647C924.269 188.322 919.42 204.172 923.818 218.814L1041.55 610.777C1045.76 624.8 1057.69 635.132 1072.17 637.302L1432.3 691.279C1442.85 692.861 1453.58 689.912 1461.84 683.159L1739.25 456.413C1751.48 446.416 1756.21 429.87 1751.12 414.918L1615.63 17.621C1611.04 4.17156 1599.3 -5.57243 1585.24 -7.60538L1243.75 -56.9682C1233.26 -58.4849 1222.61 -55.5285 1214.4 -48.8192Z" fill="url(#paint1_linear_303_9190)"/>
<defs>
<linearGradient id="paint0_linear_303_9190" x1="184.075" y1="-105.285" x2="160.652" y2="377.053" gradientUnits="userSpaceOnUse">
<stop stop-color="#3B4367"/>
<stop offset="1" stop-color="#232531" stop-opacity="0"/>
</linearGradient>
<linearGradient id="paint1_linear_303_9190" x1="1007.73" y1="38.7976" x2="1394.77" y2="436.815" gradientUnits="userSpaceOnUse">
<stop stop-color="#3B4361"/>
<stop offset="1" stop-color="#222639" stop-opacity="0"/>
</linearGradient>
</defs>
</svg>
