<svg width="992" height="526" viewBox="0 0 992 526" fill="none" xmlns="http://www.w3.org/2000/svg">
<path opacity="0.6" d="M-92.3338 -157.396L-372.475 78.5839C-387.733 91.4368 -393.675 112.257 -387.5 131.227L-242.67 576.13C-237.193 592.955 -223.071 605.52 -205.724 609.003L178.567 686.177C193.197 689.115 208.369 685.226 219.783 675.612L498.873 440.516C514.593 427.275 520.378 405.63 513.361 386.312L349.235 -65.5638C343.365 -81.7274 329.45 -93.6305 312.572 -96.927L-51.3724 -168.012C-65.9291 -170.855 -80.9902 -166.952 -92.3338 -157.396Z" fill="url(#paint0_linear_303_8636)"/>
<path opacity="0.6" d="M984.401 -48.8192L706.106 178.647C694.269 188.322 689.42 204.172 693.818 218.814L811.552 610.777C815.764 624.8 827.691 635.132 842.171 637.302L1202.3 691.279C1212.85 692.861 1223.58 689.912 1231.84 683.159L1509.25 456.413C1521.48 446.416 1526.21 429.87 1521.12 414.918L1385.63 17.621C1381.04 4.17156 1369.3 -5.57243 1355.24 -7.60538L1013.75 -56.9682C1003.26 -58.4849 992.61 -55.5285 984.401 -48.8192Z" fill="url(#paint1_linear_303_8636)"/>
<defs>
<linearGradient id="paint0_linear_303_8636" x1="174.075" y1="-105.285" x2="150.652" y2="377.053" gradientUnits="userSpaceOnUse">
<stop stop-color="#3B4367"/>
<stop offset="1" stop-color="#232531" stop-opacity="0"/>
</linearGradient>
<linearGradient id="paint1_linear_303_8636" x1="777.73" y1="38.7976" x2="1164.77" y2="436.815" gradientUnits="userSpaceOnUse">
<stop stop-color="#3B4361"/>
<stop offset="1" stop-color="#222639" stop-opacity="0"/>
</linearGradient>
</defs>
</svg>
